<?xml version="1.0" encoding="UTF-8"?>
<svg id="Layer_1" xmlns="http://www.w3.org/2000/svg" version="1.1" viewBox="0 0 33.1 36">
  <!-- Generator: Adobe Illustrator 30.1.0, SVG Export Plug-In . SVG Version: 2.1.1 Build 136)  -->
  <defs>
    <style>
      .st0 {
        fill: #757575;
        fill-rule: evenodd;
      }
    </style>
  </defs>
  <path id="Wave" class="st0" d="M28.1,29.3c-2.6,1.5-5.2,3-7.8,4.5-2.3,1.6-5.4,1.6-7.7,0-2.6-1.6-5.2-3.1-7.8-4.5-2.5-1.3-4-3.9-3.9-6.7v-1.3c.3.6.7,1.2,1.2,1.7,3.5,3.1,5.2-2,6.2-4.6,0,0,0-.3.4-1,0-.3.3-.4.6-.4.2,0,.3.1.3.3.2.6.6,1.5,1,2.6.7,1.7,1.1,3.8,2.3,4.6,1.2.8,2.8.6,3.8-.4,1.5-1.9,1.7-3.5,2.3-6.8.2-1.1.4-2.1.7-3.1,0-.6.4-1.2.9-1.6.7-.1,1.1,1.2,1.4,2.2,1,2.7,1.3,6.2,2.9,7.5,1.1.8,2.6.8,3.7,0,1.1-.8,2.3-3.2,3.3-4.9v5.1c.2,2.8-1.4,5.4-3.9,6.7ZM26.6,20.9c-.7-.5-1.2-1.2-1.3-2-.7-2.5-1.8-7.3-4.3-7.8-1.4-.3-2.3,1.3-2.7,2.1-.8,2.5-1.5,5-2,7.6-.2.8-.9,2.4-1.4,2.6-.9.3-1.5-1.3-1.7-1.9-.6-1.9-1.8-5.3-3.4-5.9-1.4-.5-2,.6-2.3,1.1-.9,1.3-2.3,5.4-3.3,5.4-1.6,0-1.9-3-3.2-3.9,0,0,0,0,0,0v-4.8c-.2-2.8,1.4-5.4,3.9-6.7,2.6-1.5,5.2-3,7.8-4.5,2.3-1.6,5.4-1.6,7.7,0,2.6,1.6,5.2,3.1,7.8,4.5,2.5,1.3,4,3.9,3.9,6.7v.8c-1.5,1.9-2.9,4.2-3.8,5.5-.4.5-.6,1.7-1.6,1.2Z"/>
</svg>